<?xml version="1.0" standalone="no"?>
<!DOCTYPE svg PUBLIC "-//W3C//DTD SVG 20010904//EN"
 "http://www.w3.org/TR/2001/REC-SVG-20010904/DTD/svg10.dtd">
<svg version="1.0" xmlns="http://www.w3.org/2000/svg"
 width="1200.000000pt" height="1200.000000pt" viewBox="0 0 1200.000000 1200.000000"
 preserveAspectRatio="xMidYMid meet">

<g transform="translate(0.000000,1200.000000) scale(0.100000,-0.100000)"
fill="#000000" stroke="none">
<path d="M5740 9994 c-834 -60 -1596 -358 -2250 -881 -173 -138 -465 -430
-604 -603 -417 -522 -697 -1126 -816 -1760 -54 -289 -65 -415 -64 -755 0 -326
13 -470 65 -750 108 -581 362 -1158 722 -1637 133 -179 192 -245 396 -448 322
-321 642 -551 1036 -745 276 -136 526 -229 790 -294 1123 -277 2275 -76 3225
562 346 233 741 612 986 947 411 561 663 1205 751 1922 25 203 25 686 0 888
-39 314 -93 558 -182 825 -196 588 -522 1113 -970 1560 -563 564 -1267 944
-2025 1095 -267 53 -450 71 -740 75 -146 1 -290 1 -320 -1z m570 -429 c753
-68 1454 -364 2025 -856 848 -731 1313 -1835 1236 -2939 -53 -758 -316 -1433
-787 -2020 -117 -145 -352 -386 -476 -488 l-77 -63 -5 33 c-3 18 -15 107 -26
198 -176 1455 -170 1415 -226 1543 -102 232 -292 413 -527 501 -124 46 -198
56 -437 56 -121 0 -220 3 -220 8 0 4 24 24 53 45 61 44 173 150 238 227 202
239 339 560 380 893 19 157 7 436 -24 577 -78 350 -227 624 -466 859 -296 289
-662 425 -1075 399 -558 -36 -1066 -450 -1269 -1034 -77 -221 -102 -395 -95
-657 6 -203 29 -333 94 -520 101 -287 292 -558 524 -741 l64 -51 -249 -6
c-272 -7 -311 -13 -455 -74 -239 -100 -441 -326 -519 -579 -23 -75 -32 -141
-141 -1036 -39 -322 -74 -597 -78 -612 l-7 -28 -98 86 c-505 441 -861 972
-1063 1584 -292 884 -232 1840 166 2666 194 404 417 714 736 1025 139 136 177
169 299 264 711 553 1614 820 2505 740z m-132 -1461 c104 -21 153 -38 247 -86
246 -123 447 -360 549 -647 57 -160 70 -241 71 -446 0 -212 -8 -272 -62 -435
-123 -373 -401 -653 -748 -752 -114 -32 -352 -32 -470 0 -482 133 -815 616
-815 1183 0 581 368 1082 870 1184 92 19 266 18 358 -1z m1117 -3023 c166 -67
282 -199 319 -363 8 -35 33 -220 56 -413 23 -192 70 -579 105 -860 l63 -510
-21 -17 c-32 -26 -316 -169 -432 -218 -390 -166 -841 -262 -1290 -277 -487
-15 -1005 80 -1460 269 -123 51 -441 210 -461 231 -9 9 1 119 42 442 29 237
65 525 79 640 14 116 38 321 55 457 30 254 46 320 96 406 38 65 131 153 197
185 120 59 55 56 1377 54 l1215 -2 60 -24z"/>
</g>
</svg>
