<?xml version="1.0" standalone="no"?>
<!DOCTYPE svg PUBLIC "-//W3C//DTD SVG 20010904//EN"
 "http://www.w3.org/TR/2001/REC-SVG-20010904/DTD/svg10.dtd">
<svg version="1.0" xmlns="http://www.w3.org/2000/svg"
 width="225.000000pt" height="225.000000pt" viewBox="0 0 225.000000 225.000000"
 preserveAspectRatio="xMidYMid meet">

<g transform="translate(0.000000,225.000000) scale(0.100000,-0.100000)"
fill="#000000" stroke="none">
<path d="M1364 2056 c-58 -13 -132 -45 -163 -70 -8 -6 -42 -11 -76 -11 -88 0
-136 -33 -175 -121 -22 -47 -34 -64 -49 -64 -30 0 -61 -45 -130 -193 -53 -113
-68 -137 -85 -137 -16 0 -27 12 -41 43 -17 36 -25 42 -54 45 -26 3 -39 -2 -51
-18 -15 -20 -16 -20 -74 40 -69 71 -96 81 -136 51 -16 -11 -41 -21 -55 -21
-27 0 -65 -31 -65 -53 0 -7 -12 -24 -26 -36 -22 -19 -25 -29 -20 -59 3 -20 1
-41 -5 -48 -16 -19 1 -63 30 -78 15 -8 44 -17 64 -21 31 -6 42 -15 57 -46 11
-21 29 -43 40 -49 11 -6 20 -17 20 -24 0 -20 41 -52 85 -64 22 -7 50 -20 63
-30 23 -17 23 -19 12 -110 -6 -50 -9 -100 -6 -110 4 -12 -3 -26 -21 -43 -42
-37 -105 -84 -133 -99 -24 -12 -47 -30 -127 -95 -44 -36 -103 -154 -103 -206
0 -45 29 -84 78 -105 49 -20 78 -11 129 38 36 35 46 40 75 35 55 -9 207 21
270 52 l57 29 -35 -71 c-31 -60 -35 -78 -32 -119 8 -82 69 -124 139 -96 25 10
45 11 75 5 68 -15 146 13 205 75 27 27 56 64 65 81 9 18 29 43 45 57 16 14 40
51 53 82 22 56 23 57 34 33 14 -31 57 -43 90 -24 40 23 62 60 74 129 6 36 19
73 28 83 16 18 20 14 74 -69 31 -48 56 -96 56 -106 0 -10 13 -26 28 -35 20
-11 32 -30 40 -59 6 -23 23 -56 38 -73 52 -62 136 -27 119 50 -10 44 11 35 52
-22 17 -24 45 -59 61 -76 49 -53 105 -40 122 27 5 19 15 54 21 76 16 55 1 91
-67 164 -28 30 -54 67 -58 82 -3 15 -12 33 -20 41 -8 7 -30 45 -50 83 -20 38
-45 85 -56 104 -11 19 -20 44 -20 55 0 11 -9 49 -21 85 l-21 65 36 62 c20 34
36 70 36 81 0 10 15 35 33 54 18 20 41 61 52 94 11 32 26 70 34 83 38 61 2
192 -65 236 -21 14 -35 34 -44 64 -7 25 -32 72 -55 105 -95 139 -282 210 -451
172z m267 -64 c85 -41 169 -128 198 -207 29 -78 26 -99 -7 -44 -34 58 -106
120 -183 159 -128 65 -304 80 -405 35 -32 -14 -59 -24 -61 -22 -8 9 109 81
159 99 41 14 74 18 143 15 77 -3 100 -8 156 -35z m-331 -51 c0 -5 -7 -11 -15
-15 -15 -5 -20 5 -8 17 9 10 23 9 23 -2z m263 -20 c52 -18 189 -100 201 -120
3 -4 -7 -23 -22 -41 l-28 -32 -50 31 c-70 43 -165 77 -256 91 -69 11 -78 15
-78 34 0 11 -3 32 -7 45 l-6 24 94 -6 c54 -3 119 -14 152 -26z m-446 -30 c-18
-27 -37 -58 -44 -68 -10 -15 -11 -13 -7 17 4 30 3 31 -5 13 -6 -13 -16 -23
-23 -23 -9 0 -9 -3 2 -11 12 -8 8 -10 -17 -7 -31 4 -33 2 -63 -64 -40 -86 -51
-83 -15 4 14 34 31 76 37 91 8 22 13 25 19 15 6 -9 9 -7 9 9 0 33 54 73 100
73 l39 0 -32 -49z m133 -1 c0 -30 -5 -42 -17 -47 -57 -19 -122 -54 -146 -78
-15 -15 -30 -25 -34 -22 -19 20 78 126 149 164 24 12 44 22 46 23 1 0 2 -18 2
-40z m70 20 c0 -12 -48 -25 -58 -16 -8 9 18 26 41 26 9 0 17 -4 17 -10z m0
-29 c0 -5 -13 -11 -30 -13 -36 -5 -39 -1 -7 12 29 12 37 12 37 1z m-75 -98
c28 -27 15 -97 -26 -139 -53 -55 -109 -43 -109 23 0 46 24 90 63 113 39 24 51
25 72 3z m-209 -29 c-12 -60 -57 -154 -75 -154 -14 0 -14 -2 -1 -11 12 -8 12
-10 1 -7 -21 6 -20 66 2 126 11 29 22 51 24 48 2 -2 -5 -27 -16 -57 -11 -29
-19 -55 -16 -57 6 -7 35 68 41 110 5 29 11 38 26 38 18 0 19 -5 14 -36z m768
-13 c-6 -6 -24 19 -24 34 1 6 7 1 15 -9 8 -11 12 -22 9 -25z m-470 20 c10 -16
-5 -41 -24 -41 -23 0 -34 16 -26 35 6 16 42 20 50 6z m456 -40 c0 -12 -5 -11
-21 6 -13 13 -18 26 -14 34 6 9 11 7 22 -6 7 -11 13 -26 13 -34z m-883 -58 c2
-61 -1 -89 -10 -95 -9 -6 -8 -8 4 -8 20 0 51 -34 42 -45 -5 -5 -1 -4 8 3 18
14 29 7 29 -20 0 -13 -7 -18 -26 -18 -17 0 -23 4 -18 13 6 9 5 9 -7 0 -8 -6
-39 -14 -69 -17 -30 -3 -68 -9 -84 -12 -34 -8 -38 -21 40 146 l59 125 6 -55 6
-55 1 63 c3 93 17 75 19 -25z m188 47 c-8 -16 -21 -64 -29 -107 l-14 -78 -1
58 c-1 54 16 114 40 144 19 22 20 15 4 -17z m684 -25 c0 -5 -7 -1 -15 10 -8
11 -20 19 -25 18 -11 -3 -12 11 -2 21 8 7 43 -33 42 -49z m66 -26 c19 -55 23
-129 11 -167 -10 -31 -14 -26 -26 38 -5 29 -20 72 -32 96 -20 41 -20 44 -4 69
22 33 31 27 51 -36z m55 -1 c8 -21 9 -21 10 -3 1 38 40 -39 47 -92 4 -38 2
-53 -12 -66 -19 -20 -24 -20 -45 -7 -13 9 -13 12 3 24 12 9 14 16 8 21 -6 3
-11 1 -11 -4 0 -6 -4 -11 -10 -11 -6 0 -10 33 -10 80 0 83 4 96 20 58z m-877
-60 c-7 -104 20 -173 101 -254 201 -201 521 -199 656 4 38 58 40 41 2 -19 -67
-104 -176 -169 -298 -177 -278 -18 -524 222 -474 462 6 31 13 56 15 56 2 0 1
-33 -2 -72z m657 17 c10 -12 10 -18 0 -30 -25 -30 -61 -7 -46 30 3 8 12 15 19
15 8 0 20 -7 27 -15z m-1226 -90 c68 -75 88 -117 63 -132 -39 -23 -48 -88 -17
-124 l20 -24 -17 38 c-16 35 -16 41 -2 65 10 18 23 26 37 25 20 -2 21 1 15 47
-4 38 -2 56 12 77 l18 27 18 -23 c42 -52 14 -206 -44 -244 -30 -19 -131 -40
-156 -32 -26 8 -71 62 -71 84 0 14 -13 21 -59 30 -59 12 -88 31 -76 51 10 16
49 12 101 -10 l47 -21 36 25 c20 13 50 31 66 40 25 12 26 15 10 16 -43 0 -123
108 -109 145 12 30 43 13 108 -60z m741 56 c7 -12 -12 -24 -25 -16 -11 7 -4
25 10 25 5 0 11 -4 15 -9z m604 -81 c0 -35 -7 -68 -19 -90 -11 -19 -19 -31
-20 -26 0 6 -13 -11 -30 -37 -16 -26 -34 -47 -40 -47 -14 0 -14 0 20 66 16 32
30 67 30 76 0 9 5 29 10 43 9 23 13 25 26 14 14 -12 15 -8 9 37 -5 36 -4 45 4
34 6 -8 11 -40 10 -70z m-1445 -2 c30 -34 53 -65 50 -70 -7 -11 -73 18 -114
51 -45 36 -54 81 -16 81 17 0 40 -17 80 -62z m1344 44 c2 -7 -3 -12 -12 -12
-9 0 -16 7 -16 16 0 17 22 14 28 -4z m-1391 -94 c55 -35 62 -43 50 -55 -12
-12 -22 -11 -69 7 -61 23 -94 51 -85 75 10 24 36 18 104 -27z m1581 20 c7 -7
12 -19 12 -27 0 -12 -2 -13 -8 -3 -11 16 -33 -53 -25 -76 4 -10 2 -13 -5 -8
-8 4 -10 2 -6 -7 8 -21 -39 -72 -59 -64 -14 5 -13 11 7 54 13 26 31 69 41 96
19 50 24 54 43 35z m-988 -60 c0 -4 5 -8 10 -8 7 0 7 7 0 21 -7 11 -9 23 -7
26 3 3 13 -8 21 -24 l16 -28 -6 27 c-5 24 -3 27 16 23 30 -6 32 -8 38 -52 13
-87 5 -156 -25 -223 -16 -36 -37 -71 -46 -79 -18 -15 -22 -31 -8 -31 5 0 19
16 31 36 12 19 24 33 27 30 7 -7 -26 -66 -37 -66 -16 0 -11 -17 6 -24 9 -4 23
-1 30 5 8 7 14 7 14 1 0 -33 -58 -31 -78 3 -7 14 -13 15 -30 6 -40 -21 -46
-11 -9 14 48 33 48 44 0 13 -27 -16 -54 -23 -92 -23 -43 -1 -50 1 -35 10 10 5
35 26 55 45 78 75 76 198 -5 282 -14 15 -26 30 -26 33 0 3 15 5 34 5 26 0 36
-5 41 -20 3 -11 11 -20 16 -20 6 0 6 7 -1 19 -12 24 -13 31 -1 31 5 0 13 -9
16 -20 3 -11 11 -20 16 -20 6 0 6 7 -1 19 -5 11 -10 23 -10 28 1 10 30 -28 30
-39z m1010 -7 c-6 -22 -15 -43 -19 -46 -5 -3 -2 17 7 45 19 59 28 60 12 1z
m-1186 0 c24 -20 46 -77 47 -123 l2 -43 7 50 c8 53 1 75 -33 113 -32 35 -5 26
31 -10 37 -39 62 -95 62 -140 -1 -44 -31 -109 -66 -142 -34 -31 -93 -51 -108
-36 -7 7 -4 10 7 10 20 0 107 83 107 102 0 6 -16 -7 -36 -30 -39 -46 -81 -72
-114 -72 -29 0 -24 13 13 31 41 20 88 96 94 152 6 53 -10 108 -39 133 -20 18
-20 17 1 -12 31 -43 38 -112 17 -169 -28 -71 -119 -136 -149 -106 -8 8 -7 11
5 11 9 0 30 11 45 25 l28 26 -35 -21 c-37 -21 -90 -27 -90 -10 0 6 8 10 18 10
10 0 37 16 59 35 53 45 77 106 71 179 -4 51 -3 54 19 51 12 -1 29 -8 37 -14z
m-67 -74 c-11 -90 -78 -156 -167 -165 -32 -3 -55 0 -65 8 -25 21 -17 30 25 30
64 0 136 44 165 100 7 14 16 45 20 69 6 37 9 41 17 26 6 -10 8 -40 5 -68z
m382 25 c25 -48 111 -128 177 -164 107 -58 259 -75 361 -39 62 21 60 7 -3 -19
-59 -26 -147 -34 -219 -21 -144 26 -290 137 -334 254 -15 40 -5 33 18 -11z
m-13 -105 c-4 -20 -3 -25 2 -14 7 17 9 18 21 3 11 -13 12 -24 2 -56 -12 -40
-24 -50 -36 -29 -4 6 1 16 11 23 9 7 14 18 10 24 -9 15 -26 16 -26 1 0 -5 5
-7 10 -4 6 3 10 1 10 -4 0 -6 -6 -11 -14 -11 -8 0 -16 -6 -19 -12 -2 -7 -7
-11 -10 -8 -4 3 0 28 8 55 8 26 15 60 15 74 1 23 2 24 11 8 6 -10 8 -32 5 -50z
m804 8 c0 -2 -9 -19 -20 -37 -18 -31 -26 -26 -20 12 3 19 40 43 40 25z m-705
-55 c105 -91 251 -131 385 -107 l35 7 -30 -15 c-16 -8 -60 -14 -97 -15 -115 0
-236 51 -317 134 -47 48 -33 46 24 -4z m649 31 c3 -5 -3 -11 -14 -14 -26 -7
-26 -35 0 -45 14 -5 17 -11 10 -22 -7 -12 -13 -11 -34 10 -30 28 -32 37 -9 62
17 19 38 24 47 9z m4 -32 c-2 -6 -8 -10 -13 -10 -5 0 -11 4 -13 10 -2 6 4 11
13 11 9 0 15 -5 13 -11z m-666 -28 c66 -74 214 -127 331 -118 l69 4 -6 -58
c-8 -68 -37 -156 -67 -205 -40 -65 -63 -29 -30 50 28 69 28 111 -3 131 -38 25
-243 105 -269 105 -31 0 -46 -19 -90 -112 -33 -71 -39 -78 -65 -78 -16 0 -36
8 -46 19 -16 17 -13 23 43 106 33 48 68 110 76 136 9 27 20 49 24 49 4 0 19
-13 33 -29z m592 -27 c18 -18 21 -34 5 -34 -5 0 -7 5 -4 10 10 16 -18 11 -52
-10 l-32 -19 26 -41 c30 -45 30 -45 57 -25 11 8 31 15 45 14 25 -1 25 -1 -4
-11 -33 -12 -75 -38 -60 -38 6 1 21 7 35 15 29 17 60 19 60 5 0 -5 -10 -10
-22 -10 -13 -1 -34 -8 -48 -16 -16 -10 -18 -13 -5 -8 11 4 34 9 51 11 27 4 32
2 36 -21 4 -18 0 -30 -11 -36 -14 -8 -14 -9 2 -10 9 0 17 -3 18 -7 0 -5 2 -16
4 -26 3 -15 -1 -18 -20 -13 -31 8 -62 -3 -43 -15 19 -12 36 -11 18 2 -11 7 -4
8 25 3 44 -7 71 -24 39 -24 -68 0 -177 -69 -211 -134 -23 -42 -30 -10 -8 36
l16 33 -20 -25 c-11 -14 -21 -29 -21 -34 0 -6 -5 -5 -11 1 -9 9 -6 23 11 57
25 53 65 90 135 123 36 18 41 23 20 18 -60 -13 -154 -96 -180 -160 -8 -19 -9
-19 -12 2 -2 12 3 37 12 55 l16 33 -20 -25 c-11 -14 -21 -28 -21 -32 0 -5 -5
-8 -11 -8 -5 0 6 30 27 67 32 59 37 78 43 159 l6 93 40 30 c47 35 49 36 69 15z
m-688 -9 c15 -11 16 -14 3 -15 -8 0 -24 7 -35 15 -15 11 -16 14 -3 15 8 0 24
-7 35 -15z m4 -34 c0 -6 -4 -12 -9 -15 -13 -8 -42 4 -35 15 7 12 44 12 44 0z
m717 -7 c-3 -3 -12 -4 -19 -1 -8 3 -5 6 6 6 11 1 17 -2 13 -5z m-157 -58 c0
-87 -9 -116 -36 -116 -34 0 -41 20 -7 21 15 0 22 3 14 6 -11 5 -11 7 0 14 11
7 10 9 -3 9 -10 0 -18 -4 -18 -10 0 -5 -3 -10 -7 -10 -5 0 -6 27 -5 60 3 51 7
60 23 60 10 0 19 5 19 10 0 6 5 10 10 10 6 0 10 -24 10 -54z m-591 35 c9 -6
10 -11 2 -15 -6 -4 -11 -1 -11 6 0 8 -5 6 -11 -5 -6 -9 -15 -15 -20 -11 -6 4
-6 11 2 20 13 16 19 17 38 5z m769 -8 c2 -7 -4 -13 -13 -13 -9 0 -29 -7 -45
-15 -25 -13 -29 -13 -35 2 -4 11 1 22 12 31 22 15 75 12 81 -5z m-1169 -35 c1
19 5 22 24 16 12 -4 25 -11 28 -16 3 -5 10 -9 15 -8 5 0 18 -1 29 -4 20 -5 20
-5 0 -20 -23 -18 -35 -20 -35 -7 0 5 8 12 18 14 12 3 10 5 -7 6 -19 1 -23 -3
-19 -23 4 -18 -2 -27 -28 -41 -19 -10 -36 -26 -39 -36 -4 -11 -11 -19 -16 -19
-13 0 -12 5 17 63 23 47 23 50 4 27 -16 -18 -20 -20 -16 -7 3 10 7 35 7 55 l1
37 8 -30 c6 -25 8 -26 9 -7z m681 -14 c122 -48 134 -56 145 -91 6 -23 6 -23
-24 -6 -20 12 -26 20 -18 26 7 5 3 6 -10 2 -13 -3 -31 -2 -40 4 -14 8 -15 10
-3 11 13 0 13 1 0 10 -8 5 -19 10 -25 10 -5 0 -3 -5 5 -10 13 -9 13 -10 0 -10
-8 -1 10 -13 40 -28 32 -16 56 -35 58 -46 4 -20 -62 -155 -85 -173 -17 -13
-35 -8 -167 48 l-78 33 5 40 c3 23 2 35 0 27 -4 -11 -7 -11 -14 0 -5 9 -10 5
-15 -16 -4 -15 -2 -35 3 -44 6 -9 67 -39 137 -67 70 -29 121 -54 114 -56 -16
-6 -268 96 -278 113 -9 14 0 92 11 99 4 3 17 28 29 55 45 104 52 115 74 115
12 0 73 -21 136 -46z m-324 -21 c-8 -9 -66 18 -60 28 3 5 19 2 35 -7 17 -8 28
-18 25 -21z m-56 -19 c47 7 47 -8 0 -17 -38 -8 -75 6 -90 33 -12 22 -12 22 18
0 25 -19 38 -22 72 -16z m-35 26 c-3 -5 -10 -10 -16 -10 -5 0 -9 5 -9 10 0 6
7 10 16 10 8 0 12 -4 9 -10z m0 -59 c38 -9 39 -9 8 -10 -32 -1 -93 40 -93 62
0 7 10 0 23 -15 13 -17 38 -31 62 -37z m35 49 c0 -5 -7 -10 -16 -10 -8 0 -12
5 -9 10 3 6 10 10 16 10 5 0 9 -4 9 -10z m-153 -49 c-1 -11 -6 -17 -14 -14 -9
4 -11 0 -6 -13 4 -12 3 -15 -5 -10 -17 10 -16 5 22 -76 32 -70 75 -124 123
-155 l22 -15 -21 -29 c-21 -28 -22 -28 -42 -11 l-21 17 19 -23 c18 -21 19 -24
3 -39 -17 -17 -36 -15 -112 11 -11 4 0 -4 24 -17 53 -29 38 -38 -39 -23 -71
15 -137 59 -177 120 -18 26 -33 42 -33 34 0 -23 77 -105 123 -132 23 -14 63
-30 89 -36 55 -14 54 -30 0 -30 -73 1 -169 58 -213 128 -30 48 -39 50 -15 4
32 -61 144 -141 199 -142 10 0 15 -5 12 -10 -9 -14 -70 -12 -108 3 -50 22 -96
65 -122 118 -26 50 -30 75 -18 106 6 16 8 15 14 -7 7 -23 7 -23 8 7 1 36 17
53 24 26 4 -15 5 -14 6 3 0 12 22 41 47 64 l47 43 43 -83 c45 -88 83 -133 136
-165 23 -13 14 -1 -29 39 -35 32 -73 79 -88 109 l-26 52 31 26 c23 20 30 34
31 65 1 34 2 36 9 14 4 -14 8 -18 9 -9 1 15 37 69 46 69 2 0 3 -9 2 -19z m99
-21 c7 0 20 -13 28 -28 8 -16 22 -34 30 -41 20 -16 20 -30 1 -55 -15 -19 -16
-19 -51 15 -40 38 -74 98 -74 129 l0 21 26 -20 c15 -12 33 -21 40 -21z m-177
-47 c1 -13 -5 -23 -13 -23 -7 0 -19 -7 -26 -15 -17 -20 -30 -10 -30 25 0 37
51 79 62 52 4 -9 7 -27 7 -39z m263 29 c8 -6 31 -18 51 -27 25 -10 35 -20 31
-30 -8 -21 -24 -19 -24 3 0 14 -2 15 -10 2 -9 -13 -10 -13 -11 0 0 10 -2 11
-6 3 -7 -18 -23 -16 -23 3 0 8 -4 12 -10 9 -5 -3 -10 1 -10 10 0 9 -4 13 -10
10 -5 -3 -10 0 -10 9 0 8 -6 17 -12 20 -7 2 -3 4 9 2 11 -1 27 -7 35 -14z
m590 -4 c-7 -7 -12 -8 -12 -2 0 14 12 26 19 19 2 -3 -1 -11 -7 -17z m-740 -14
c10 -21 9 -27 -3 -35 -22 -14 -28 -11 -35 15 -12 47 19 63 38 20z m786 14 c-6
-18 -28 -21 -28 -4 0 9 7 16 16 16 9 0 14 -5 12 -12z m-48 -22 c0 -2 -7 -20
-15 -39 -9 -22 -11 -37 -5 -40 6 -3 5 -4 -2 -3 -7 2 -19 -4 -26 -13 -16 -19
-14 -11 13 52 11 26 23 47 28 47 4 0 7 -2 7 -4z m30 -15 c0 -5 -7 -14 -15 -21
-12 -10 -15 -10 -15 2 0 8 3 18 7 21 9 10 23 9 23 -2z m-483 -48 c-3 -10 -5
-4 -5 12 0 17 2 24 5 18 2 -7 2 -21 0 -30z m-210 -23 c30 -27 59 -50 64 -50 5
0 9 -7 9 -15 0 -8 -3 -15 -7 -15 -19 0 -132 104 -133 123 0 15 13 6 67 -43z
m1011 23 c2 -9 -8 -13 -30 -13 -67 -1 -157 -62 -196 -134 -16 -29 -17 -30 -20
-8 -4 29 30 85 72 117 62 48 163 69 174 38z m-973 -131 c-10 -11 -59 25 -92
68 -56 71 -36 73 33 4 36 -36 63 -69 59 -72z m29 116 c-5 -9 -2 -9 9 1 14 11
17 11 17 0 -1 -25 -25 -50 -38 -37 -10 10 0 48 14 48 3 0 2 -6 -2 -12z m48
-57 c-18 -22 -27 -42 -22 -47 12 -12 -16 -48 -30 -39 -14 9 -9 24 37 92 20 31
39 51 41 44 2 -7 -10 -30 -26 -50z m904 41 c6 -4 13 -15 17 -24 5 -15 1 -18
-28 -18 -66 0 -150 -48 -186 -107 -31 -49 -49 -28 -24 27 20 45 72 95 119 116
34 15 85 18 102 6z m-836 -27 c11 -13 10 -14 -6 -8 -17 6 -17 5 -5 -10 16 -20
2 -23 -19 -4 -12 10 -12 9 -2 -5 15 -18 0 -34 -20 -22 -7 4 -3 -3 9 -16 11
-12 49 -35 82 -50 58 -25 60 -27 43 -43 -26 -24 -45 -22 -37 3 5 17 -1 24 -40
41 -42 19 -48 19 -69 5 -30 -19 -40 -9 -21 21 9 13 13 28 9 34 -7 13 35 61 47
53 5 -3 9 0 9 5 0 15 5 14 20 -4z m421 -12 c10 3 17 1 13 -4 -7 -12 -51 -11
-75 1 -32 18 -21 30 12 13 16 -8 39 -13 50 -10z m-46 -31 c-10 -2 -25 3 -33
12 -15 14 -13 15 17 3 23 -8 28 -13 16 -15z m-325 3 c0 -7 14 -18 30 -25 17
-7 30 -16 30 -20 0 -16 -12 -40 -21 -40 -4 0 -6 6 -3 13 5 15 -52 45 -78 41
-22 -3 -23 4 -3 26 18 19 45 22 45 5z m819 0 c26 -13 41 -33 41 -54 0 -5 -18
-4 -39 2 -73 20 -171 -31 -201 -103 -14 -34 -36 -39 -45 -10 -10 33 39 109 92
142 63 38 110 45 152 23z m-771 -1 c12 -4 22 -11 22 -16 0 -10 -39 -1 -54 13
-12 11 -1 11 32 3z m237 -4 c3 -5 -1 -10 -9 -10 -9 0 -16 5 -16 10 0 6 4 10 9
10 6 0 13 -4 16 -10z m-926 -123 c27 -44 78 -91 126 -115 l40 -21 -56 -1 c-42
0 -64 6 -90 23 -44 29 -79 82 -80 121 -2 31 -2 31 -6 3 -6 -37 36 -108 79
-136 42 -26 14 -28 -29 -1 -39 24 -64 60 -74 108 -6 35 -7 35 -8 7 -1 -34 27
-85 67 -121 l27 -24 -32 11 c-39 13 -93 71 -94 102 -3 56 23 139 38 123 3 -3
12 2 19 12 12 15 13 13 9 -18 -4 -31 -4 -32 4 -8 17 52 25 55 33 10 4 -24 16
-58 27 -75z m731 100 c0 -7 -7 -22 -15 -33 -13 -17 -13 -16 -3 14 13 34 18 40
18 19z m165 -17 c-3 -5 -11 -10 -16 -10 -6 0 -7 5 -4 10 3 6 11 10 16 10 6 0
7 -4 4 -10z m105 0 c0 -5 -6 -10 -12 -11 -9 0 -9 -2 -2 -5 17 -7 4 -44 -15
-43 -9 0 -11 3 -4 5 7 3 9 12 6 20 -3 8 -3 21 1 29 6 17 26 21 26 5z m-211 -9
c22 -14 10 -160 -14 -178 -11 -7 -15 -13 -9 -13 14 -1 -37 -40 -52 -40 -8 0
-14 9 -14 20 0 11 5 20 10 20 6 0 10 -7 10 -16 0 -8 5 -12 10 -9 6 4 8 11 5
16 -4 5 -2 9 4 9 6 0 8 7 5 15 -4 9 0 15 7 15 11 0 11 3 -1 10 -12 8 -8 10 15
11 29 1 30 1 5 9 l-25 8 25 2 c23 1 23 2 5 10 l-20 9 20 1 c19 1 18 2 -2 10
-26 10 -21 40 6 41 12 0 12 2 -4 9 -14 6 -15 9 -5 10 12 0 11 3 -2 11 -10 5
-18 14 -18 19 0 12 20 13 39 1z m153 -57 c-9 -15 -10 -15 -17 5 -4 13 -1 28 7
38 12 15 13 14 16 -5 2 -12 -1 -29 -6 -38z m471 24 c-43 -19 -52 -31 -33 -43
6 -4 9 -1 8 7 -2 8 6 13 19 12 12 0 19 4 16 9 -3 5 4 6 18 2 19 -5 21 -4 9 4
-12 9 -9 10 15 9 17 -1 44 -14 62 -29 l31 -27 -51 -20 c-41 -15 -57 -17 -76
-8 l-24 10 33 14 c26 10 35 10 48 0 15 -12 16 -11 3 5 -8 10 -19 16 -25 14
-41 -15 -58 -18 -52 -9 3 6 2 13 -3 17 -6 3 -8 -3 -6 -15 5 -24 -3 -25 -34 -3
-14 9 -21 11 -17 5 4 -7 27 -24 52 -38 l45 -26 61 23 61 23 23 -30 c30 -36 46
-81 33 -89 -5 -4 -9 -15 -9 -26 0 -31 -16 -22 -44 25 -36 62 -52 68 -21 9 25
-45 25 -48 8 -61 -17 -13 -16 -14 4 -8 29 9 50 -25 28 -44 -13 -10 -19 -10
-33 4 -10 9 -21 14 -24 11 -3 -3 -17 14 -32 38 -29 51 -79 97 -104 97 -15 0
-15 2 -2 10 13 9 13 10 0 10 -33 0 -41 -16 -38 -76 3 -53 1 -59 -17 -59 -11 0
-19 6 -17 13 1 8 -2 11 -7 7 -15 -9 -41 50 -48 107 -5 37 -3 49 5 44 7 -4 10
-2 7 7 -8 18 27 61 64 79 16 8 47 14 68 15 l38 0 -42 -19z m-928 -4 c14 -9 25
-19 25 -23 0 -13 -70 -52 -81 -45 -8 4 -9 3 -5 -5 9 -14 -22 -27 -35 -14 -11
11 46 103 63 103 5 0 20 -7 33 -16z m129 -4 c7 -7 -1 -10 -21 -10 -17 0 -37 8
-44 17 -13 15 -11 16 21 9 19 -3 39 -11 44 -16z m231 10 c-3 -5 -13 -10 -21
-10 -8 0 -12 5 -9 10 3 6 13 10 21 10 8 0 12 -4 9 -10z m-108 -34 c-4 -9 -18
-16 -33 -16 l-27 0 23 25 c25 26 48 20 37 -9z m-887 17 c-1 -5 -5 -27 -9 -50
-5 -23 -5 -41 -1 -38 7 4 44 -65 38 -71 -2 -1 -12 10 -23 27 -24 36 -32 36
-47 4 -10 -23 -8 -29 20 -57 31 -32 31 -32 53 -12 l22 19 -14 -25 c-7 -14 -13
-29 -14 -33 0 -14 -29 -27 -61 -27 -35 0 -70 31 -78 70 -7 31 16 96 32 93 7
-2 9 4 5 14 -4 10 -2 14 4 10 6 -4 10 1 9 11 0 9 5 16 12 14 8 -1 10 2 7 8 -4
6 1 20 11 31 17 19 34 25 34 12z m1045 -12 c-3 -5 -1 -13 5 -16 7 -4 8 -11 1
-18 -7 -9 0 -12 24 -13 19 0 34 2 33 5 -2 26 5 41 20 41 14 0 15 -2 2 -10 -8
-5 -11 -10 -7 -10 15 0 -27 -60 -47 -66 -23 -8 -60 34 -45 52 5 6 6 14 3 17
-6 6 3 27 12 27 3 0 3 -4 -1 -9z m-227 -35 l63 -1 -4 -31 c-6 -40 -14 -54 -34
-54 -10 0 -13 -6 -9 -16 3 -8 2 -12 -3 -9 -5 3 -9 -10 -8 -29 2 -29 5 -33 20
-25 19 11 23 -1 6 -18 -6 -6 -16 -22 -23 -34 -16 -32 -66 -59 -123 -65 -88
-10 -187 66 -199 152 l-6 39 33 -54 c40 -64 99 -101 164 -101 43 0 102 16 120
32 5 5 -10 2 -34 -7 -54 -19 -111 -19 -155 -1 -36 15 -90 75 -93 103 -1 10 -5
28 -9 41 -8 29 12 29 45 0 14 -13 20 -16 14 -8 -20 22 -15 32 8 20 11 -7 23
-9 26 -7 2 3 -5 8 -16 12 -26 8 -27 22 -3 29 10 4 31 19 46 35 27 28 28 28 69
13 23 -8 70 -15 105 -16z m-847 -89 c-10 -9 -11 -8 -5 6 3 10 9 15 12 12 3 -3
0 -11 -7 -18z m607 -168 c56 -35 100 -44 153 -31 33 8 38 8 29 -3 -19 -23 -77
-45 -120 -45 -45 0 -72 11 -107 43 -24 21 -32 44 -12 31 7 -4 2 7 -10 23 -13
16 -25 50 -27 74 l-5 44 27 -54 c19 -38 40 -61 72 -82z m-114 20 c3 -17 15
-43 26 -59 28 -40 26 -52 -7 -39 -16 6 -30 10 -33 10 -3 -1 -6 26 -8 59 -4 63
11 83 22 29z"/>
<path d="M848 1650 c-4 -8 -9 -33 -12 -55 l-5 -40 15 28 c8 15 14 40 12 55 -3
18 -6 22 -10 12z"/>
<path d="M899 1537 c11 -13 11 -21 3 -29 -8 -8 -14 -5 -21 13 -9 23 -10 23
-10 2 -1 -26 11 -35 33 -27 21 8 20 28 -1 45 -16 13 -17 12 -4 -4z"/>
<path d="M836 1523 c-6 -14 -5 -15 5 -6 7 7 10 15 7 18 -3 3 -9 -2 -12 -12z"/>
<path d="M1913 1585 c0 -22 2 -30 4 -17 2 12 2 30 0 40 -3 9 -5 -1 -4 -23z"/>
<path d="M424 1345 c-25 -19 -14 -19 22 0 16 8 22 15 13 15 -8 0 -24 -7 -35
-15z"/>
<path d="M361 1267 c2 -1 13 -9 24 -17 19 -14 19 -14 6 3 -7 9 -18 17 -24 17
-6 0 -8 -1 -6 -3z"/>
<path d="M418 1233 c7 -3 16 -2 19 1 4 3 -2 6 -13 5 -11 0 -14 -3 -6 -6z"/>
<path d="M1771 1444 c0 -11 3 -14 6 -6 3 7 2 16 -1 19 -3 4 -6 -2 -5 -13z"/>
<path d="M1833 1324 c-3 -9 -15 -20 -27 -25 -17 -7 -18 -9 -2 -6 17 2 57 47
42 47 -4 0 -9 -7 -13 -16z"/>
<path d="M950 1425 c0 -5 5 -17 10 -25 5 -8 10 -10 10 -5 0 6 -5 17 -10 25 -5
8 -10 11 -10 5z"/>
<path d="M822 1094 c-24 -19 -39 -34 -33 -34 6 0 28 16 49 35 47 44 40 44 -16
-1z"/>
<path d="M793 1270 c0 -25 2 -35 4 -22 2 12 2 32 0 45 -2 12 -4 2 -4 -23z"/>
<path d="M743 1189 c-12 -21 -17 -37 -12 -33 11 6 42 64 37 69 -2 2 -13 -14
-25 -36z"/>
<path d="M1713 845 c0 -7 6 -11 14 -8 7 3 13 6 13 8 0 2 -6 5 -13 8 -8 3 -14
-1 -14 -8z"/>
<path d="M1689 845 c-1 -3 -2 -8 -3 -12 -1 -5 -5 -15 -10 -23 -7 -12 -6 -13 4
-3 13 12 23 43 14 43 -2 0 -5 -2 -5 -5z"/>
<path d="M1639 803 c-13 -15 -17 -22 -8 -15 9 6 19 10 22 7 4 -3 5 -2 2 2 -3
3 0 12 6 20 21 25 3 13 -22 -14z"/>
<path d="M1540 1020 c0 -22 2 -40 4 -40 2 0 6 18 8 40 2 22 0 40 -4 40 -5 0
-8 -18 -8 -40z"/>
<path d="M1684 1055 c-24 -18 -19 -18 31 0 33 12 36 14 14 15 -14 0 -34 -7
-45 -15z"/>
<path d="M1122 1017 c-17 -20 -53 -109 -47 -115 3 -3 5 1 5 9 0 11 2 11 9 1 5
-9 14 3 29 37 16 40 26 51 44 52 18 1 19 2 5 6 -10 3 -25 -1 -34 -9 -14 -11
-15 -11 -11 2 2 8 18 18 34 21 29 7 29 7 3 8 -15 0 -31 -5 -37 -12z m-13 -66
c-6 -18 -13 -30 -15 -28 -2 2 1 18 7 36 6 18 13 30 15 28 2 -2 -1 -18 -7 -36z"/>
<path d="M1200 1010 c13 -9 13 -10 0 -10 -18 -1 23 -24 60 -34 19 -6 21 -5 10
3 -13 10 -13 11 0 11 13 0 13 1 0 10 -8 5 -19 10 -25 10 -5 0 -3 -5 5 -10 13
-9 13 -10 0 -10 -8 0 -22 5 -30 10 -13 9 -13 10 0 10 13 0 13 1 0 10 -8 5 -19
10 -25 10 -5 0 -3 -5 5 -10z"/>
<path d="M1146 954 c-4 -9 -4 -19 -1 -22 3 -3 5 0 5 5 0 7 17 3 40 -8 50 -24
53 -43 4 -23 -20 8 -38 13 -41 11 -2 -3 12 -11 31 -18 20 -7 36 -18 36 -24 1
-5 8 2 16 18 18 33 12 45 -32 63 -43 18 -50 18 -58 -2z m59 -8 c19 -8 35 -19
35 -24 0 -5 -18 -1 -40 10 -37 18 -49 28 -35 28 3 0 21 -7 40 -14z"/>
<path d="M1130 914 c0 -17 21 -32 55 -39 29 -6 29 -5 -5 10 -19 9 -38 21 -42
28 -5 8 -8 8 -8 1z"/>
<path d="M1290 900 c-11 -11 -20 -26 -20 -33 0 -24 31 -57 54 -57 26 0 56 28
56 53 0 21 -35 57 -55 57 -8 0 -24 -9 -35 -20z m77 -36 c2 -14 1 -14 -7 4 -5
12 -18 22 -28 22 -24 0 -46 -25 -36 -41 4 -8 3 -9 -4 -5 -17 10 -15 23 9 47
18 18 23 19 42 6 12 -8 23 -23 24 -33z"/>
<path d="M1105 840 c-19 -37 -15 -45 31 -60 42 -14 68 1 58 33 -4 14 -3 17 6
12 9 -6 11 -4 5 4 -6 11 -65 41 -79 41 -3 0 -13 -14 -21 -30z m75 -2 c10 -6 6
-7 -15 -3 -16 4 -34 11 -40 17 -12 12 31 1 55 -14z m-24 -13 c41 -17 41 -41 0
-38 -34 2 -57 20 -49 39 6 17 6 17 49 -1z"/>
<path d="M1130 805 c14 -8 32 -14 40 -14 9 0 4 6 -10 14 -14 8 -32 14 -40 14
-9 0 -4 -6 10 -14z"/>
<path d="M1240 775 c0 -15 37 -35 66 -35 24 0 16 30 -12 40 -36 14 -54 12 -54
-5z m56 -11 c18 -14 18 -15 -6 -8 -31 8 -50 24 -29 24 8 0 24 -7 35 -16z"/>
<path d="M1046 703 c-6 -14 -5 -15 5 -6 7 7 10 15 7 18 -3 3 -9 -2 -12 -12z"/>
<path d="M341 634 c0 -11 3 -14 6 -6 3 7 2 16 -1 19 -3 4 -6 -2 -5 -13z"/>
<path d="M1944 585 c8 -8 18 -15 22 -15 3 0 1 7 -6 15 -7 8 -17 15 -22 15 -5
0 -3 -7 6 -15z"/>
<path d="M1888 553 c6 -2 18 -2 25 0 6 3 1 5 -13 5 -14 0 -19 -2 -12 -5z"/>
<path d="M2021 493 c26 -45 39 -60 39 -48 0 10 -50 85 -57 85 -3 0 5 -17 18
-37z"/>
<path d="M1731 484 c0 -11 3 -14 6 -6 3 7 2 16 -1 19 -3 4 -6 -2 -5 -13z"/>
<path d="M1882 485 c14 -8 42 -41 62 -72 20 -32 36 -53 36 -49 0 5 -14 31 -31
58 -31 48 -64 78 -84 78 -5 -1 2 -7 17 -15z"/>
<path d="M280 370 c-8 -5 -10 -10 -5 -10 6 0 17 5 25 10 8 5 11 10 5 10 -5 0
-17 -5 -25 -10z"/>
<path d="M928 533 c6 -2 18 -2 25 0 6 3 1 5 -13 5 -14 0 -19 -2 -12 -5z"/>
<path d="M928 483 c7 -3 16 -2 19 1 4 3 -2 6 -13 5 -11 0 -14 -3 -6 -6z"/>
<path d="M973 473 c9 -2 25 -2 35 0 9 3 1 5 -18 5 -19 0 -27 -2 -17 -5z"/>
<path d="M860 426 c52 -59 150 -82 215 -50 17 8 21 11 10 8 -81 -25 -153 -12
-213 39 -36 30 -36 31 -12 3z"/>
<path d="M830 286 c0 -2 8 -10 18 -17 15 -13 16 -12 3 4 -13 16 -21 21 -21 13z"/>
</g>
</svg>
